<svg xmlns="http://www.w3.org/2000/svg" viewBox="0 0 800 400">
  <!-- Background -->
  <rect width="800" height="400" fill="#f5f5f5" />
  
  <!-- Title -->
  <text x="400" y="40" font-family="Arial" font-size="24" text-anchor="middle" font-weight="bold">Kubernetes Networking</text>
  
  <!-- External Traffic -->
  <rect x="350" y="70" width="100" height="40" rx="20" fill="#e3f2fd" stroke="#0d47a1" stroke-width="2" />
  <text x="400" y="95" font-family="Arial" font-size="14" text-anchor="middle">External Traffic</text>
  
  <!-- Load Balancer -->
  <rect x="300" y="130" width="200" height="40" rx="5" fill="#bbdefb" stroke="#1976d2" stroke-width="2" />
  <text x="400" y="155" font-family="Arial" font-size="14" text-anchor="middle">Load Balancer / Ingress</text>
  
  <!-- Service -->
  <rect x="300" y="190" width="200" height="40" rx="5" fill="#90caf9" stroke="#1565c0" stroke-width="2" />
  <text x="400" y="215" font-family="Arial" font-size="14" text-anchor="middle">Service (ClusterIP)</text>
  
  <!-- Pods -->
  <rect x="150" y="270" width="100" height="60" rx="10" fill="#c8e6c9" stroke="#388e3c" stroke-width="2" />
  <text x="200" y="305" font-family="Arial" font-size="14" text-anchor="middle">Pod</text>
  
  <rect x="350" y="270" width="100" height="60" rx="10" fill="#c8e6c9" stroke="#388e3c" stroke-width="2" />
  <text x="400" y="305" font-family="Arial" font-size="14" text-anchor="middle">Pod</text>
  
  <rect x="550" y="270" width="100" height="60" rx="10" fill="#c8e6c9" stroke="#388e3c" stroke-width="2" />
  <text x="600" y="305" font-family="Arial" font-size="14" text-anchor="middle">Pod</text>
  
  <!-- Node Boundaries -->
  <rect x="130" y="250" width="140" height="100" rx="5" fill="none" stroke="#616161" stroke-width="2" stroke-dasharray="5,5" />
  <text x="200" y="360" font-family="Arial" font-size="12" text-anchor="middle">Node 1</text>
  
  <rect x="330" y="250" width="140" height="100" rx="5" fill="none" stroke="#616161" stroke-width="2" stroke-dasharray="5,5" />
  <text x="400" y="360" font-family="Arial" font-size="12" text-anchor="middle">Node 2</text>
  
  <rect x="530" y="250" width="140" height="100" rx="5" fill="none" stroke="#616161" stroke-width="2" stroke-dasharray="5,5" />
  <text x="600" y="360" font-family="Arial" font-size="12" text-anchor="middle">Node 3</text>
  
  <!-- CNI Cloud -->
  <ellipse cx="400" cy="380" rx="300" ry="30" fill="#e0f7fa" stroke="#006064" stroke-width="2" stroke-dasharray="5,3" />
  <text x="400" y="385" font-family="Arial" font-size="14" text-anchor="middle">Container Network Interface (CNI)</text>
  
  <!-- Connection Lines -->
  <!-- External to LoadBalancer -->
  <line x1="400" y1="110" x2="400" y2="130" stroke="#0d47a1" stroke-width="2" />
  
  <!-- LoadBalancer to Service -->
  <line x1="400" y1="170" x2="400" y2="190" stroke="#1565c0" stroke-width="2" />
  
  <!-- Service to Pods -->
  <line x1="400" y1="230" x2="200" y2="270" stroke="#1565c0" stroke-width="2" />
  <line x1="400" y1="230" x2="400" y2="270" stroke="#1565c0" stroke-width="2" />
  <line x1="400" y1="230" x2="600" y2="270" stroke="#1565c0" stroke-width="2" />
  
  <!-- Pod to Pod Communication -->
  <path d="M 250 300 Q 325 330 350 300" stroke="#006064" stroke-width="2" fill="none" stroke-dasharray="3,3" />
  <path d="M 450 300 Q 525 330 550 300" stroke="#006064" stroke-width="2" fill="none" stroke-dasharray="3,3" />
  <path d="M 150 300 Q 350 360 550 300" stroke="#006064" stroke-width="2" fill="none" stroke-dasharray="3,3" />
  
  <!-- Legend -->
  <rect x="600" y="80" width="160" height="120" fill="#ffffff" stroke="#424242" stroke-width="1" />
  <text x="680" y="100" font-family="Arial" font-size="12" text-anchor="middle" font-weight="bold">Legend</text>
  
  <line x1="620" y1="120" x2="650" y2="120" stroke="#0d47a1" stroke-width="2" />
  <text x="685" y="125" font-family="Arial" font-size="10" text-anchor="start">External Traffic</text>
  
  <line x1="620" y1="140" x2="650" y2="140" stroke="#1565c0" stroke-width="2" />
  <text x="685" y="145" font-family="Arial" font-size="10" text-anchor="start">Service Traffic</text>
  
  <line x1="620" y1="160" x2="650" y2="160" stroke="#006064" stroke-width="2" stroke-dasharray="3,3" />
  <text x="685" y="165" font-family="Arial" font-size="10" text-anchor="start">Pod-to-Pod Traffic</text>
  
  <rect x="620" y="175" width="15" height="15" fill="none" stroke="#616161" stroke-width="2" stroke-dasharray="5,5" />
  <text x="685" y="185" font-family="Arial" font-size="10" text-anchor="start">Node Boundary</text>
</svg>